<mxfile host="app.diagrams.net" modified="2023-10-25T14:55:14.741Z" agent="Mozilla/5.0 (Windows NT 10.0; Win64; x64) AppleWebKit/537.36 (KHTML, like Gecko) Chrome/118.0.0.0 Safari/537.36" etag="sZoCrJ6FgG1aha6vnDG6" version="21.7.5" type="device">
  <diagram name="Page-1" id="sN7JZPQU8f9NEJSd9ra_">
    <mxGraphModel dx="1210" dy="607" grid="1" gridSize="10" guides="1" tooltips="1" connect="1" arrows="1" fold="1" page="1" pageScale="1" pageWidth="850" pageHeight="1100" math="0" shadow="0">
      <root>
        <mxCell id="0" />
        <mxCell id="1" parent="0" />
        <mxCell id="7fPk-ixUy2Y3C8_DJJrd-2" value="Role" style="swimlane;whiteSpace=wrap;html=1;" parent="1" vertex="1">
          <mxGeometry x="30" y="50" width="120" height="120" as="geometry" />
        </mxCell>
        <mxCell id="7fPk-ixUy2Y3C8_DJJrd-3" value="id" style="text;html=1;align=center;verticalAlign=middle;resizable=0;points=[];autosize=1;strokeColor=none;fillColor=none;" parent="7fPk-ixUy2Y3C8_DJJrd-2" vertex="1">
          <mxGeometry x="10" y="30" width="30" height="30" as="geometry" />
        </mxCell>
        <mxCell id="7fPk-ixUy2Y3C8_DJJrd-4" value="name" style="text;html=1;align=center;verticalAlign=middle;resizable=0;points=[];autosize=1;strokeColor=none;fillColor=none;" parent="7fPk-ixUy2Y3C8_DJJrd-2" vertex="1">
          <mxGeometry y="50" width="50" height="30" as="geometry" />
        </mxCell>
        <mxCell id="7fPk-ixUy2Y3C8_DJJrd-5" value="description" style="text;html=1;align=center;verticalAlign=middle;resizable=0;points=[];autosize=1;strokeColor=none;fillColor=none;" parent="7fPk-ixUy2Y3C8_DJJrd-2" vertex="1">
          <mxGeometry y="80" width="80" height="30" as="geometry" />
        </mxCell>
        <mxCell id="7fPk-ixUy2Y3C8_DJJrd-6" value="User" style="swimlane;whiteSpace=wrap;html=1;" parent="1" vertex="1">
          <mxGeometry x="40" y="340" width="125" height="270" as="geometry" />
        </mxCell>
        <mxCell id="7fPk-ixUy2Y3C8_DJJrd-7" value="id" style="text;html=1;align=center;verticalAlign=middle;resizable=0;points=[];autosize=1;strokeColor=none;fillColor=none;" parent="7fPk-ixUy2Y3C8_DJJrd-6" vertex="1">
          <mxGeometry x="20" y="30" width="30" height="30" as="geometry" />
        </mxCell>
        <mxCell id="7fPk-ixUy2Y3C8_DJJrd-8" value="email&lt;br&gt;" style="text;html=1;align=center;verticalAlign=middle;resizable=0;points=[];autosize=1;strokeColor=none;fillColor=none;" parent="7fPk-ixUy2Y3C8_DJJrd-6" vertex="1">
          <mxGeometry x="10" y="60" width="50" height="30" as="geometry" />
        </mxCell>
        <mxCell id="7fPk-ixUy2Y3C8_DJJrd-9" value="pwd&lt;br&gt;" style="text;html=1;align=center;verticalAlign=middle;resizable=0;points=[];autosize=1;strokeColor=none;fillColor=none;" parent="7fPk-ixUy2Y3C8_DJJrd-6" vertex="1">
          <mxGeometry x="10" y="85" width="50" height="30" as="geometry" />
        </mxCell>
        <mxCell id="7fPk-ixUy2Y3C8_DJJrd-10" value="user_name" style="text;html=1;align=center;verticalAlign=middle;resizable=0;points=[];autosize=1;strokeColor=none;fillColor=none;" parent="7fPk-ixUy2Y3C8_DJJrd-6" vertex="1">
          <mxGeometry x="10" y="120" width="80" height="30" as="geometry" />
        </mxCell>
        <mxCell id="7fPk-ixUy2Y3C8_DJJrd-12" value="billing_address_id" style="text;html=1;align=center;verticalAlign=middle;resizable=0;points=[];autosize=1;strokeColor=none;fillColor=none;" parent="7fPk-ixUy2Y3C8_DJJrd-6" vertex="1">
          <mxGeometry y="150" width="120" height="30" as="geometry" />
        </mxCell>
        <mxCell id="7fPk-ixUy2Y3C8_DJJrd-13" value="role_id&lt;br&gt;" style="text;html=1;align=center;verticalAlign=middle;resizable=0;points=[];autosize=1;strokeColor=none;fillColor=none;" parent="7fPk-ixUy2Y3C8_DJJrd-6" vertex="1">
          <mxGeometry x="20" y="220" width="60" height="30" as="geometry" />
        </mxCell>
        <mxCell id="HMBM59YrfuJoS3D2hvfG-1" value="shipping_address_id" style="text;html=1;align=center;verticalAlign=middle;resizable=0;points=[];autosize=1;strokeColor=none;fillColor=none;" vertex="1" parent="7fPk-ixUy2Y3C8_DJJrd-6">
          <mxGeometry x="-5" y="180" width="130" height="30" as="geometry" />
        </mxCell>
        <mxCell id="7fPk-ixUy2Y3C8_DJJrd-14" value="Address" style="swimlane;whiteSpace=wrap;html=1;" parent="1" vertex="1">
          <mxGeometry x="40" y="660" width="200" height="250" as="geometry" />
        </mxCell>
        <mxCell id="7fPk-ixUy2Y3C8_DJJrd-15" value="id" style="text;html=1;align=center;verticalAlign=middle;resizable=0;points=[];autosize=1;strokeColor=none;fillColor=none;" parent="7fPk-ixUy2Y3C8_DJJrd-14" vertex="1">
          <mxGeometry x="10" y="28" width="30" height="30" as="geometry" />
        </mxCell>
        <mxCell id="7fPk-ixUy2Y3C8_DJJrd-17" value="street_name&lt;br&gt;" style="text;html=1;align=center;verticalAlign=middle;resizable=0;points=[];autosize=1;strokeColor=none;fillColor=none;" parent="7fPk-ixUy2Y3C8_DJJrd-14" vertex="1">
          <mxGeometry x="-5" y="88" width="90" height="30" as="geometry" />
        </mxCell>
        <mxCell id="7fPk-ixUy2Y3C8_DJJrd-16" value="street_nb" style="text;html=1;align=center;verticalAlign=middle;resizable=0;points=[];autosize=1;strokeColor=none;fillColor=none;" parent="7fPk-ixUy2Y3C8_DJJrd-14" vertex="1">
          <mxGeometry x="5" y="58" width="70" height="30" as="geometry" />
        </mxCell>
        <mxCell id="7fPk-ixUy2Y3C8_DJJrd-18" value="city" style="text;html=1;align=center;verticalAlign=middle;resizable=0;points=[];autosize=1;strokeColor=none;fillColor=none;" parent="7fPk-ixUy2Y3C8_DJJrd-14" vertex="1">
          <mxGeometry x="5" y="110" width="40" height="30" as="geometry" />
        </mxCell>
        <mxCell id="7fPk-ixUy2Y3C8_DJJrd-19" value="province" style="text;html=1;align=center;verticalAlign=middle;resizable=0;points=[];autosize=1;strokeColor=none;fillColor=none;" parent="7fPk-ixUy2Y3C8_DJJrd-14" vertex="1">
          <mxGeometry x="-5" y="140" width="70" height="30" as="geometry" />
        </mxCell>
        <mxCell id="7fPk-ixUy2Y3C8_DJJrd-20" value="zip_code" style="text;html=1;align=center;verticalAlign=middle;resizable=0;points=[];autosize=1;strokeColor=none;fillColor=none;" parent="7fPk-ixUy2Y3C8_DJJrd-14" vertex="1">
          <mxGeometry x="-5" y="170" width="70" height="30" as="geometry" />
        </mxCell>
        <mxCell id="7fPk-ixUy2Y3C8_DJJrd-21" value="country" style="text;html=1;align=center;verticalAlign=middle;resizable=0;points=[];autosize=1;strokeColor=none;fillColor=none;" parent="7fPk-ixUy2Y3C8_DJJrd-14" vertex="1">
          <mxGeometry y="200" width="60" height="30" as="geometry" />
        </mxCell>
        <mxCell id="7fPk-ixUy2Y3C8_DJJrd-22" value="billing_order" style="swimlane;whiteSpace=wrap;html=1;" parent="1" vertex="1">
          <mxGeometry x="260" y="399.25" width="120" height="200" as="geometry" />
        </mxCell>
        <mxCell id="7fPk-ixUy2Y3C8_DJJrd-24" value="ref" style="text;html=1;align=center;verticalAlign=middle;resizable=0;points=[];autosize=1;strokeColor=none;fillColor=none;" parent="7fPk-ixUy2Y3C8_DJJrd-22" vertex="1">
          <mxGeometry x="25" y="50" width="40" height="30" as="geometry" />
        </mxCell>
        <mxCell id="7fPk-ixUy2Y3C8_DJJrd-23" value="id" style="text;html=1;align=center;verticalAlign=middle;resizable=0;points=[];autosize=1;strokeColor=none;fillColor=none;" parent="7fPk-ixUy2Y3C8_DJJrd-22" vertex="1">
          <mxGeometry x="25" y="30" width="30" height="30" as="geometry" />
        </mxCell>
        <mxCell id="7fPk-ixUy2Y3C8_DJJrd-25" value="date" style="text;html=1;align=center;verticalAlign=middle;resizable=0;points=[];autosize=1;strokeColor=none;fillColor=none;" parent="7fPk-ixUy2Y3C8_DJJrd-22" vertex="1">
          <mxGeometry x="25" y="78" width="50" height="30" as="geometry" />
        </mxCell>
        <mxCell id="7fPk-ixUy2Y3C8_DJJrd-26" value="total" style="text;html=1;align=center;verticalAlign=middle;resizable=0;points=[];autosize=1;strokeColor=none;fillColor=none;" parent="7fPk-ixUy2Y3C8_DJJrd-22" vertex="1">
          <mxGeometry x="25" y="118" width="50" height="30" as="geometry" />
        </mxCell>
        <mxCell id="HMBM59YrfuJoS3D2hvfG-2" value="user_id" style="text;html=1;align=center;verticalAlign=middle;resizable=0;points=[];autosize=1;strokeColor=none;fillColor=none;" vertex="1" parent="7fPk-ixUy2Y3C8_DJJrd-22">
          <mxGeometry x="20" y="148" width="60" height="30" as="geometry" />
        </mxCell>
        <mxCell id="7fPk-ixUy2Y3C8_DJJrd-27" value="Order has product" style="swimlane;whiteSpace=wrap;html=1;" parent="1" vertex="1">
          <mxGeometry x="470" y="405" width="110" height="200" as="geometry" />
        </mxCell>
        <mxCell id="7fPk-ixUy2Y3C8_DJJrd-29" value="product_id&lt;br&gt;" style="text;html=1;align=center;verticalAlign=middle;resizable=0;points=[];autosize=1;strokeColor=none;fillColor=none;" parent="7fPk-ixUy2Y3C8_DJJrd-27" vertex="1">
          <mxGeometry x="-5" y="45" width="80" height="30" as="geometry" />
        </mxCell>
        <mxCell id="7fPk-ixUy2Y3C8_DJJrd-30" value="qty" style="text;html=1;align=center;verticalAlign=middle;resizable=0;points=[];autosize=1;strokeColor=none;fillColor=none;" parent="7fPk-ixUy2Y3C8_DJJrd-27" vertex="1">
          <mxGeometry y="68" width="40" height="30" as="geometry" />
        </mxCell>
        <mxCell id="7fPk-ixUy2Y3C8_DJJrd-28" value="order_id" style="text;html=1;align=center;verticalAlign=middle;resizable=0;points=[];autosize=1;strokeColor=none;fillColor=none;" parent="7fPk-ixUy2Y3C8_DJJrd-27" vertex="1">
          <mxGeometry x="-5" y="25" width="70" height="30" as="geometry" />
        </mxCell>
        <mxCell id="HMBM59YrfuJoS3D2hvfG-10" value="id" style="text;html=1;align=center;verticalAlign=middle;resizable=0;points=[];autosize=1;strokeColor=none;fillColor=none;" vertex="1" parent="7fPk-ixUy2Y3C8_DJJrd-27">
          <mxGeometry x="15" y="98" width="30" height="30" as="geometry" />
        </mxCell>
        <mxCell id="7fPk-ixUy2Y3C8_DJJrd-31" value="Product" style="swimlane;whiteSpace=wrap;html=1;" parent="1" vertex="1">
          <mxGeometry x="690" y="399.25" width="130" height="240.75" as="geometry" />
        </mxCell>
        <mxCell id="7fPk-ixUy2Y3C8_DJJrd-33" value="name" style="text;html=1;align=center;verticalAlign=middle;resizable=0;points=[];autosize=1;strokeColor=none;fillColor=none;" parent="7fPk-ixUy2Y3C8_DJJrd-31" vertex="1">
          <mxGeometry x="5" y="48.75" width="50" height="30" as="geometry" />
        </mxCell>
        <mxCell id="7fPk-ixUy2Y3C8_DJJrd-32" value="id&lt;br&gt;" style="text;html=1;align=center;verticalAlign=middle;resizable=0;points=[];autosize=1;strokeColor=none;fillColor=none;" parent="7fPk-ixUy2Y3C8_DJJrd-31" vertex="1">
          <mxGeometry x="10" y="28.75" width="30" height="30" as="geometry" />
        </mxCell>
        <mxCell id="7fPk-ixUy2Y3C8_DJJrd-34" value="qty" style="text;html=1;align=center;verticalAlign=middle;resizable=0;points=[];autosize=1;strokeColor=none;fillColor=none;" parent="7fPk-ixUy2Y3C8_DJJrd-31" vertex="1">
          <mxGeometry y="68.75" width="40" height="30" as="geometry" />
        </mxCell>
        <mxCell id="7fPk-ixUy2Y3C8_DJJrd-35" value="price" style="text;html=1;align=center;verticalAlign=middle;resizable=0;points=[];autosize=1;strokeColor=none;fillColor=none;" parent="7fPk-ixUy2Y3C8_DJJrd-31" vertex="1">
          <mxGeometry y="90.75" width="50" height="30" as="geometry" />
        </mxCell>
        <mxCell id="7fPk-ixUy2Y3C8_DJJrd-36" value="url_img" style="text;html=1;align=center;verticalAlign=middle;resizable=0;points=[];autosize=1;strokeColor=none;fillColor=none;" parent="7fPk-ixUy2Y3C8_DJJrd-31" vertex="1">
          <mxGeometry y="118.75" width="60" height="30" as="geometry" />
        </mxCell>
        <mxCell id="7fPk-ixUy2Y3C8_DJJrd-37" value="description" style="text;html=1;align=center;verticalAlign=middle;resizable=0;points=[];autosize=1;strokeColor=none;fillColor=none;" parent="7fPk-ixUy2Y3C8_DJJrd-31" vertex="1">
          <mxGeometry y="148.75" width="80" height="30" as="geometry" />
        </mxCell>
        <mxCell id="7fPk-ixUy2Y3C8_DJJrd-40" value="" style="endArrow=none;html=1;rounded=0;entryX=0.5;entryY=1;entryDx=0;entryDy=0;exitX=0.5;exitY=0;exitDx=0;exitDy=0;" parent="1" source="7fPk-ixUy2Y3C8_DJJrd-6" target="7fPk-ixUy2Y3C8_DJJrd-2" edge="1">
          <mxGeometry width="50" height="50" relative="1" as="geometry">
            <mxPoint x="100" y="360" as="sourcePoint" />
            <mxPoint x="150" y="310" as="targetPoint" />
          </mxGeometry>
        </mxCell>
        <mxCell id="7fPk-ixUy2Y3C8_DJJrd-42" value="" style="endArrow=none;html=1;rounded=0;entryX=1;entryY=0.5;entryDx=0;entryDy=0;exitX=0;exitY=0.5;exitDx=0;exitDy=0;" parent="1" source="7fPk-ixUy2Y3C8_DJJrd-22" target="7fPk-ixUy2Y3C8_DJJrd-6" edge="1">
          <mxGeometry width="50" height="50" relative="1" as="geometry">
            <mxPoint x="220" y="440" as="sourcePoint" />
            <mxPoint x="210" y="230" as="targetPoint" />
          </mxGeometry>
        </mxCell>
        <mxCell id="7fPk-ixUy2Y3C8_DJJrd-43" value="" style="endArrow=none;html=1;rounded=0;entryX=1;entryY=0.5;entryDx=0;entryDy=0;exitX=0;exitY=0.5;exitDx=0;exitDy=0;" parent="1" source="7fPk-ixUy2Y3C8_DJJrd-27" target="7fPk-ixUy2Y3C8_DJJrd-22" edge="1">
          <mxGeometry width="50" height="50" relative="1" as="geometry">
            <mxPoint x="450" y="610" as="sourcePoint" />
            <mxPoint x="440" y="400" as="targetPoint" />
          </mxGeometry>
        </mxCell>
        <mxCell id="7fPk-ixUy2Y3C8_DJJrd-44" value="" style="endArrow=none;html=1;rounded=0;entryX=1;entryY=0.5;entryDx=0;entryDy=0;" parent="1" source="7fPk-ixUy2Y3C8_DJJrd-31" target="7fPk-ixUy2Y3C8_DJJrd-27" edge="1">
          <mxGeometry width="50" height="50" relative="1" as="geometry">
            <mxPoint x="640" y="670" as="sourcePoint" />
            <mxPoint x="630" y="460" as="targetPoint" />
          </mxGeometry>
        </mxCell>
        <mxCell id="7fPk-ixUy2Y3C8_DJJrd-46" value="1.1" style="text;html=1;align=center;verticalAlign=middle;resizable=0;points=[];autosize=1;strokeColor=none;fillColor=none;" parent="1" vertex="1">
          <mxGeometry x="50" y="168" width="40" height="30" as="geometry" />
        </mxCell>
        <mxCell id="7fPk-ixUy2Y3C8_DJJrd-47" value="0.n" style="text;html=1;align=center;verticalAlign=middle;resizable=0;points=[];autosize=1;strokeColor=none;fillColor=none;" parent="1" vertex="1">
          <mxGeometry x="50" y="310" width="40" height="30" as="geometry" />
        </mxCell>
        <mxCell id="7fPk-ixUy2Y3C8_DJJrd-48" value="1.1" style="text;html=1;align=center;verticalAlign=middle;resizable=0;points=[];autosize=1;strokeColor=none;fillColor=none;" parent="1" vertex="1">
          <mxGeometry x="160" y="484.25" width="40" height="30" as="geometry" />
        </mxCell>
        <mxCell id="7fPk-ixUy2Y3C8_DJJrd-49" value="0.n" style="text;html=1;align=center;verticalAlign=middle;resizable=0;points=[];autosize=1;strokeColor=none;fillColor=none;" parent="1" vertex="1">
          <mxGeometry x="220" y="468" width="40" height="30" as="geometry" />
        </mxCell>
        <mxCell id="7fPk-ixUy2Y3C8_DJJrd-50" value="0.n&lt;br&gt;" style="text;html=1;align=center;verticalAlign=middle;resizable=0;points=[];autosize=1;strokeColor=none;fillColor=none;" parent="1" vertex="1">
          <mxGeometry x="370" y="468" width="40" height="30" as="geometry" />
        </mxCell>
        <mxCell id="7fPk-ixUy2Y3C8_DJJrd-51" value="0.n" style="text;html=1;align=center;verticalAlign=middle;resizable=0;points=[];autosize=1;strokeColor=none;fillColor=none;" parent="1" vertex="1">
          <mxGeometry x="430" y="478" width="40" height="30" as="geometry" />
        </mxCell>
        <mxCell id="7fPk-ixUy2Y3C8_DJJrd-52" value="1.1" style="text;html=1;align=center;verticalAlign=middle;resizable=0;points=[];autosize=1;strokeColor=none;fillColor=none;" parent="1" vertex="1">
          <mxGeometry x="570" y="478" width="40" height="30" as="geometry" />
        </mxCell>
        <mxCell id="7fPk-ixUy2Y3C8_DJJrd-53" value="0.n" style="text;html=1;align=center;verticalAlign=middle;resizable=0;points=[];autosize=1;strokeColor=none;fillColor=none;" parent="1" vertex="1">
          <mxGeometry x="650" y="488" width="40" height="30" as="geometry" />
        </mxCell>
      </root>
    </mxGraphModel>
  </diagram>
</mxfile>
